# xmcd CD database file
#
# Track frame offsets:
#	182
#	14187
#	28010
#	39670
#	50697
#	61032
#	73140
#	85955
#	97375
#	111045
#	123972
#	135622
#	149377
#	161510
#	173972
#	184535
#
# Disc length: 2629 seconds
#
# Revision: 1
# Processed by: cddbd v1.5.1PL0 Copyright (c) Steve Scherf et al.
# Submitted via: CDex 1.51
#
DISCID=e90a4310
DTITLE=Ray Charles - The Great
DYEAR=1993
DGENRE=Blues
TTITLE0=Kiss Me Baby
TTITLE1=Baby Let Me Hold Your Hand
TTITLE2=How Long Blues
TTITLE3=A Sentimental Blues
TTITLE4=Sittin' on Top of the World
TTITLE5=I've Had My Fun
TTITLE6=Don't Put All Your Dreams in One Basket
TTITLE7=She's on the Ball
TTITLE8=This Love of Mine
TTITLE9=Baby, Won't You Please Come Home
TTITLE10=What Have I Done
TTITLE11=Misery in My Heart
TTITLE12=Honey Honey
TTITLE13=I'm Glad for Your Sake
TTITLE14=Hey Now
TTITLE15=The Snow Is Falling
EXTD=YEAR: 1993
EXTT0=
EXTT1=
EXTT2=
EXTT3=
EXTT4=
EXTT5=
EXTT6=
EXTT7=
EXTT8=
EXTT9=
EXTT10=
EXTT11=
EXTT12=
EXTT13=
EXTT14=
EXTT15=
PLAYORDER=
